<svg width="1024" height="1024" viewBox="0 0 1024 1024" fill="none" xmlns="http://www.w3.org/2000/svg">
<path fill-rule="evenodd" clip-rule="evenodd" d="M215.106 182.08C201.851 182.08 191.106 192.825 191.106 206.08V252.315H211.106V206.08C211.106 203.87 212.897 202.08 215.106 202.08H260.075V822.92H215.106C212.897 822.92 211.106 821.129 211.106 818.92V772.459H225.533C235.849 772.459 244.212 764.096 244.212 753.78C244.212 743.463 235.849 735.1 225.533 735.1H211.106V691.994L225.533 691.994C235.849 691.994 244.212 683.631 244.212 673.315C244.212 662.999 235.849 654.636 225.533 654.636L211.106 654.636V611.53H225.533C235.849 611.53 244.212 603.167 244.212 592.851C244.212 582.535 235.849 574.172 225.533 574.172L211.106 574.172V531.066L225.533 531.066C235.849 531.066 244.212 522.703 244.212 512.387C244.212 502.07 235.849 493.707 225.533 493.707L211.106 493.707V450.602H225.533C235.849 450.602 244.212 442.239 244.212 431.922C244.212 421.606 235.849 413.243 225.533 413.243H176.679C166.363 413.243 158 421.606 158 431.922C158 442.239 166.363 450.602 176.679 450.602H191.106V493.707L176.679 493.707C166.363 493.707 158 502.07 158 512.387C158 522.703 166.363 531.066 176.679 531.066L191.106 531.066V574.172L176.679 574.172C166.363 574.172 158 582.535 158 592.851C158 603.167 166.363 611.53 176.679 611.53H191.106V654.636L176.679 654.636C166.363 654.636 158 662.999 158 673.315C158 683.631 166.363 691.994 176.679 691.994L191.106 691.994V735.1H176.679C166.363 735.1 158 743.463 158 753.78C158 764.096 166.363 772.459 176.679 772.459H191.106V818.92C191.106 832.175 201.851 842.92 215.106 842.92H270.075H715.871C729.106 842.92 739.871 832.217 739.871 818.942V705.627C739.871 700.104 735.394 695.627 729.871 695.627C724.348 695.627 719.871 700.104 719.871 705.627V818.942C719.871 821.131 718.101 822.92 715.871 822.92H280.075V202.08H715.871C718.08 202.08 719.871 203.87 719.871 206.08V645.543C719.871 651.066 724.348 655.543 729.871 655.543C735.394 655.543 739.871 651.066 739.871 645.543V206.08C739.871 192.825 729.126 182.08 715.871 182.08H215.106ZM211.106 332.779V289.673L225.533 289.673C235.849 289.673 244.212 281.31 244.212 270.994C244.212 260.678 235.849 252.315 225.533 252.315H176.679C166.363 252.315 158 260.678 158 270.994C158 281.31 166.363 289.673 176.679 289.673L191.106 289.673V332.779H176.679C166.363 332.779 158 341.142 158 351.458C158 361.774 166.363 370.137 176.679 370.137L191.106 370.137V413.243H211.106V370.137L225.533 370.137C235.849 370.137 244.212 361.774 244.212 351.458C244.212 341.142 235.849 332.779 225.533 332.779H211.106ZM303.181 261.049C303.181 255.526 307.658 251.049 313.181 251.049H678.144C683.667 251.049 688.144 255.526 688.144 261.049V421.978C688.144 427.5 683.667 431.978 678.144 431.978H332.887C327.365 431.978 322.887 427.5 322.887 421.978C322.887 416.455 327.365 411.978 332.887 411.978H668.144V271.049H323.181V400.915C323.181 406.438 318.704 410.915 313.181 410.915C307.658 410.915 303.181 406.438 303.181 400.915V261.049ZM364.539 300.596C357.724 300.596 352.2 306.121 352.2 312.935C352.2 319.75 357.724 325.274 364.539 325.274H627.406C634.221 325.274 639.745 319.75 639.745 312.935C639.745 306.121 634.221 300.596 627.406 300.596H364.539ZM352.2 370.873C352.2 364.059 357.724 358.535 364.539 358.535H627.406C634.221 358.535 639.745 364.059 639.745 370.873C639.745 377.688 634.221 383.212 627.406 383.212H364.539C357.724 383.212 352.2 377.688 352.2 370.873ZM791.216 209.16H851C853.761 209.16 856 211.398 856 214.16V767.937C856 769.293 855.449 770.59 854.474 771.532L821.628 803.269C819.577 805.251 816.287 805.118 814.402 802.979L787.465 772.407C786.66 771.494 786.216 770.319 786.216 769.102V214.16C786.216 211.398 788.455 209.16 791.216 209.16ZM766.216 214.16C766.216 200.352 777.409 189.16 791.216 189.16H851C864.807 189.16 876 200.352 876 214.16V767.937C876 774.716 873.247 781.205 868.371 785.915L835.525 817.652C825.272 827.559 808.822 826.898 799.396 816.201L772.459 785.629C768.436 781.064 766.216 775.187 766.216 769.102V214.16Z" fill="url(#paint0_linear_201_2)"/>
<defs>
<linearGradient id="paint0_linear_201_2" x1="158" y1="182.233" x2="721.074" y2="950.448" gradientUnits="userSpaceOnUse">
<stop stop-color="#FF3434"/>
<stop offset="1" stop-color="#FFCC00"/>
</linearGradient>
</defs>
</svg>
