<svg width="1024" height="1024" viewBox="0 0 1024 1024" fill="none" xmlns="http://www.w3.org/2000/svg">
<g clip-path="url(#clip0_311_14)">
<mask id="mask0_311_14" style="mask-type:alpha" maskUnits="userSpaceOnUse" x="8" y="4" width="1016" height="1020">
<path d="M917.007 809.427C917.007 819.205 924.934 827.133 934.713 827.133H1006.29C1016.07 827.133 1024 835.06 1024 844.839V897.161C1024 906.94 1016.07 914.867 1006.29 914.867H934.713C924.934 914.867 917.007 922.795 917.007 932.573V1006.29C917.007 1016.07 909.079 1024 899.301 1024H848.699C838.921 1024 830.993 1016.07 830.993 1006.29V932.573C830.993 922.795 823.066 914.867 813.287 914.867H741.706C731.927 914.867 724 906.94 724 897.161V844.839C724 835.06 731.927 827.133 741.706 827.133H813.287C823.066 827.133 830.993 819.205 830.993 809.427V735.706C830.993 725.927 838.921 718 848.699 718H899.301C909.079 718 917.007 725.927 917.007 735.706V809.427Z" fill="#D9D9D9"/>
<path d="M297.803 997.716C288.367 1007.15 275.64 1012.56 262.298 1012.81L60.8626 1016.58C31.6286 1017.12 7.78764 993.282 8.33369 964.048L12.0985 762.612C12.3478 749.27 17.759 736.544 27.1949 727.108L607.676 146.626L878.284 417.234L297.803 997.716ZM1005.1 217.483C1025.24 237.624 1025.24 270.28 1005.1 290.421L959.925 335.593L689.318 64.9852L734.49 19.8132C754.631 -0.327802 787.285 -0.327727 807.426 19.8132L1005.1 217.483Z" fill="#D9D9D9"/>
</mask>
<g mask="url(#mask0_311_14)">
<rect width="1024" height="1024" fill="url(#paint0_linear_311_14)"/>
</g>
</g>
<defs>
<linearGradient id="paint0_linear_311_14" x1="0" y1="1024" x2="1024" y2="0" gradientUnits="userSpaceOnUse">
<stop stop-color="#FF3434"/>
<stop offset="1" stop-color="#FFCC00"/>
</linearGradient>
<clipPath id="clip0_311_14">
<rect width="1024" height="1024" fill="white"/>
</clipPath>
</defs>
</svg>
